<svg width="25" height="25" viewBox="0 0 25 25" fill="none" xmlns="http://www.w3.org/2000/svg">
<circle cx="12.5" cy="12.5" r="12.5" fill="white"/>
<circle cx="12.5" cy="12.501" r="10.25" stroke="#7C67FF" stroke-width="0.5"/>
<path d="M13.6186 17.5068C13.2333 17.2316 12.9031 16.9564 12.5729 16.6262C12.2427 16.6813 11.9124 16.7363 11.5822 16.7363C9.21569 16.7363 7.28945 14.81 7.28945 12.4435C7.28945 10.077 9.21569 8.15072 11.5822 8.15072C13.9488 8.15072 15.875 10.077 15.875 12.4435C15.875 14.3147 14.6642 15.9107 12.9581 16.5161C13.2333 16.7913 13.5085 17.0115 13.8387 17.2316C14.0588 17.3417 14.2239 17.5068 14.4441 17.6169C16.2603 16.6262 17.4711 14.7 17.4711 12.4435C17.4711 9.1964 14.8293 6.55469 11.5822 6.55469C8.33512 6.55469 5.69342 9.1964 5.69342 12.4435C5.69342 15.6906 8.33512 18.3323 11.5822 18.3323C12.4628 18.3323 13.3434 18.1122 14.0588 17.782C13.9488 17.7269 13.7837 17.6169 13.6186 17.5068Z" fill="#7C67FF"/>
<path d="M18.9111 15.0314C18.6359 14.481 18.1956 13.9307 17.6453 13.4353C17.5352 14.0407 17.3701 14.6461 17.0949 15.1414C17.26 15.3616 17.4251 15.5817 17.5352 15.7468C17.7553 16.1871 17.8104 16.5173 17.7003 16.6274C17.5902 16.7375 17.315 16.8476 16.8197 16.7925C16.1593 16.6824 15.3888 16.4073 14.7284 15.9119C13.2424 14.8663 12.7471 13.6555 12.9672 13.3253C13.0223 13.2152 13.2424 13.1602 13.5726 13.1602C14.123 13.1602 15.0586 13.3803 15.9942 14.0958C16.3244 14.3159 16.6546 14.5911 16.9298 14.8663C17.1499 14.3159 17.315 13.7656 17.4251 13.1602C17.26 13.0501 17.0949 12.885 16.9298 12.7749C14.8384 11.289 12.582 11.1789 11.7014 12.4447C10.8208 13.7105 11.7564 15.8019 13.8478 17.2328C14.7834 17.8932 15.774 18.2785 16.6546 18.3886C16.8197 18.3886 16.9848 18.4436 17.1499 18.4436C17.9755 18.4436 18.6359 18.1684 19.0762 17.563C19.4064 16.9026 19.4064 16.022 18.9111 15.0314Z" fill="#7C67FF"/>
</svg>
