<svg width="25" height="22" viewBox="0 0 25 22" fill="none" xmlns="http://www.w3.org/2000/svg">
<path d="M14.3896 19.8856C13.6901 19.3859 13.0905 18.8863 12.4909 18.2867C11.8914 18.3867 11.2918 18.4866 10.6922 18.4866C6.39534 18.4866 2.89789 14.9891 2.89789 10.6922C2.89789 6.39535 6.39534 2.89789 10.6922 2.89789C14.9891 2.89789 18.4866 6.39535 18.4866 10.6922C18.4866 14.0898 16.2882 16.9877 13.1904 18.0869C13.69 18.5865 14.1897 18.9862 14.7893 19.3859C15.189 19.5858 15.4888 19.8856 15.8885 20.0854C19.1861 18.2867 21.3845 14.7893 21.3845 10.6922C21.3845 4.79652 16.5879 0 10.6922 0C4.7965 0 0 4.79652 0 10.6922C0 16.588 4.7965 21.3845 10.6922 21.3845C12.2911 21.3845 13.8899 20.9848 15.189 20.3852C14.9891 20.2853 14.6893 20.0854 14.3896 19.8856Z" fill="#7C67FF"/>
<path d="M24.2823 15.3908C23.7827 14.3916 22.9833 13.3923 21.984 12.4929C21.7841 13.5921 21.4844 14.6913 20.9847 15.5907C21.2845 15.9904 21.5843 16.3901 21.7841 16.6899C22.1838 17.4893 22.2838 18.0889 22.0839 18.2887C21.8841 18.4886 21.3844 18.6884 20.4851 18.5885C19.286 18.3887 17.887 17.889 16.6878 16.9897C13.9898 15.091 13.0905 12.8927 13.4902 12.2931C13.5901 12.0932 13.9898 11.9933 14.5894 11.9933C15.5887 11.9933 17.2874 12.393 18.9862 13.6921C19.5857 14.0918 20.1853 14.5914 20.6849 15.091C21.0846 14.0918 21.3844 13.0925 21.5843 11.9933C21.2845 11.7934 20.9847 11.4937 20.6849 11.2938C16.8877 8.59577 12.7907 8.39591 11.1918 10.6942C9.59298 12.9926 11.2918 16.7898 15.089 19.3879C16.7878 20.5871 18.5865 21.2865 20.1853 21.4864C20.4851 21.4864 20.7849 21.5863 21.0847 21.5863C22.5836 21.5863 23.7827 21.0867 24.5821 19.9875C25.1817 18.7884 25.1817 17.1895 24.2823 15.3908Z" fill="#7C67FF"/>
</svg>
