<svg width="25" height="25" viewBox="0 0 25 25" fill="none" xmlns="http://www.w3.org/2000/svg">
<circle cx="12.5" cy="12.5" r="12.5" fill="url(#paint0_linear_2877_2954)"/>
<path fill-rule="evenodd" clip-rule="evenodd" d="M12.5736 16.6262C12.9038 16.9564 13.234 17.2316 13.6192 17.5068L13.6193 17.5069C13.7844 17.6169 13.9495 17.7269 14.0595 17.782C13.344 18.1122 12.4635 18.3323 11.5829 18.3323C8.33579 18.3323 5.69409 15.6906 5.69409 12.4435C5.69409 9.1964 8.33579 6.55469 11.5829 6.55469C14.83 6.55469 17.4717 9.1964 17.4717 12.4435C17.4717 14.0436 16.8629 15.4776 15.8611 16.5298C16.1896 16.6553 16.5162 16.7408 16.8195 16.7913C17.3149 16.8463 17.59 16.7363 17.7001 16.6262C17.8102 16.5161 17.7551 16.1859 17.535 15.7456C17.4249 15.5805 17.2598 15.3604 17.0947 15.1402C17.3699 14.6449 17.535 14.0395 17.6451 13.4341C18.1954 13.9295 18.6357 14.4798 18.9109 15.0302C19.4062 16.0208 19.4062 16.9014 19.076 17.5618C18.6357 18.1672 17.9753 18.4424 17.1498 18.4424C17.0672 18.4424 16.9846 18.4286 16.9021 18.4149C16.8195 18.4011 16.737 18.3873 16.6544 18.3873C15.9606 18.3006 15.1985 18.0431 14.4488 17.6147C14.4474 17.6154 14.4461 17.6161 14.4448 17.6169C14.3591 17.574 14.2817 17.5228 14.2062 17.4698C14.0938 17.3997 13.9818 17.3257 13.8707 17.2478C13.8603 17.2423 13.8499 17.2369 13.8394 17.2316C13.5488 17.0379 13.3008 16.8442 13.058 16.613C11.5348 15.2455 10.9408 13.5367 11.7012 12.4435C12.4333 11.3911 14.1164 11.2898 15.865 12.1394C15.7085 9.91415 13.8472 8.15072 11.5829 8.15072C9.21637 8.15072 7.29012 10.077 7.29012 12.4435C7.29012 14.81 9.21637 16.7363 11.5829 16.7363C11.9131 16.7363 12.2433 16.6813 12.5736 16.6262ZM15.6389 13.8457C14.8273 13.3268 14.053 13.159 13.5724 13.159C13.2422 13.159 13.0221 13.214 12.967 13.3241C12.7637 13.629 13.1707 14.6851 14.4047 15.6685C14.9624 15.1792 15.3917 14.5536 15.6389 13.8457Z" fill="#272341"/>
<defs>
<linearGradient id="paint0_linear_2877_2954" x1="12.5" y1="25" x2="12.5" y2="-1.74675e-07" gradientUnits="userSpaceOnUse">
<stop stop-color="#634AFF"/>
<stop offset="1" stop-color="#7E73FF"/>
</linearGradient>
</defs>
</svg>
